# Blender v2.79 (sub 0) OBJ File: 'box.blend'
# www.blender.org
mtllib box.mtl
o Cube_Cube.005
v 8.530752 36.026428 74.680550
v 8.530752 68.286377 74.680550
v 8.530752 36.026428 -131.750641
v 8.530752 68.286377 -131.750641
v 90.025757 36.026428 74.680550
v 90.025757 68.286377 74.680550
v 90.025757 36.026428 -131.750641
v 90.025757 68.286377 -131.750641
vt 0.119149 0.419854
vt 0.119149 0.300820
vt 0.880850 0.300820
vt 0.880850 0.419854
vt 0.999885 0.419854
vt 0.999885 0.720559
vt 0.880850 0.720559
vt 0.761816 0.720789
vt 0.761816 0.839824
vt 0.000115 0.839824
vt 0.000115 0.720789
vt 0.119150 0.720559
vt 0.000115 0.720559
vt 0.000115 0.419854
vt 0.880851 0.000115
vt 0.119150 0.000115
vn -1.0000 0.0000 0.0000
vn 0.0000 0.0000 -1.0000
vn 1.0000 0.0000 0.0000
vn 0.0000 0.0000 1.0000
vn 0.0000 -1.0000 0.0000
vn 0.0000 1.0000 0.0000
usemtl Material.001
s off
f 1/1/1 2/2/1 4/3/1 3/4/1
f 3/4/2 4/5/2 8/6/2 7/7/2
f 7/8/3 8/9/3 6/10/3 5/11/3
f 5/12/4 6/13/4 2/14/4 1/1/4
f 3/4/5 7/7/5 5/12/5 1/1/5
f 8/15/6 4/3/6 2/2/6 6/16/6
