# Blender v2.79 (sub 0) OBJ File: ''
# www.blender.org
mtllib box.mtl
o Cube_Cube.005
v 115.529190 50.433113 -40.261219
v 117.928604 81.077782 -36.105316
v -53.964359 81.077820 63.137150
v -56.363777 50.433147 58.981247
v -92.671616 93.200607 -3.905789
v -95.071045 62.555935 -8.061696
v 79.221344 93.200577 -103.148254
v 76.821930 62.555904 -107.304161
vt 0.119149 0.419854
vt 0.119149 0.300820
vt 0.880850 0.300820
vt 0.880850 0.419854
vt 0.999885 0.419854
vt 0.999885 0.720559
vt 0.880850 0.720559
vt 0.761816 0.720789
vt 0.761816 0.839824
vt 0.000115 0.839824
vt 0.000115 0.720789
vt 0.119150 0.720559
vt 0.000115 0.720559
vt 0.000115 0.419854
vt 0.880851 0.000115
vt 0.119150 0.000115
vn 0.4940 -0.1547 0.8556
vn -0.8660 0.0000 0.5000
vn -0.4940 0.1547 -0.8556
vn 0.8660 -0.0000 -0.5000
vn -0.0774 -0.9880 -0.1340
vn 0.0774 0.9880 0.1340
usemtl None
s 1
f 1/1/1 2/2/1 3/3/1 4/4/1
f 4/4/2 3/5/2 5/6/2 6/7/2
f 6/8/3 5/9/3 7/10/3 8/11/3
f 8/12/4 7/13/4 2/14/4 1/1/4
f 4/4/5 6/7/5 8/12/5 1/1/5
f 5/15/6 3/3/6 2/2/6 7/16/6
